<svg xmlns="http://www.w3.org/2000/svg"  width="100%" height="100%" viewBox="0 0 100 100"><svg id="fb0ac510-92b4-4aab-9637-394df9810069" data-name="Background" xmlns="http://www.w3.org/2000/svg" viewBox="0 0 63.969 63.969"><g id="a5ca7378-a511-4f67-8cf2-21ac737ccaff" data-name="Blue"><rect width="63.969" height="63.969" style="fill: rgb(172, 217, 255);"></rect></g></svg><svg xmlns="http://www.w3.org/2000/svg" viewBox="0 0 63.969 63.969"></svg><svg id="b6c404ec-ba8a-4771-a40a-e75a101bac7f" data-name="BodyColor" xmlns="http://www.w3.org/2000/svg" viewBox="0 0 63.969 63.969"><g id="ba946130-0481-4006-88cc-671450b4c0b0" data-name="Blue"><path d="M28.316,11.638c-5.74,1.079-9.513,5.912-10.924,10.047-1.1,3.212-.615,6.105-.483,9.389.364,9,.974,9.118.8,13.754-.148,3.97-2.517,6.91-1.727,7.963,1.064,1.419,4.367.867,7.113-1.009,1.974-1.349,4.76-4.047,7.678-3.817,2.216.175,2.9,1.9,5.484,2.194,3.482.4,4.168-2.446,7.458-3.071,1.881-.357,3.37.84,6.01.647a2.654,2.654,0,0,0,2.292-1.217c1.169-1.532-1.876-3.992-3.894-8.862-2.821-6.808-1.755-6.69-4.365-14.478-1.583-4.721-3.674-8.722-7.941-10.7A12.46,12.46,0,0,0,28.316,11.638Z" style="fill: rgb(203, 236, 255); stroke: rgb(0, 0, 0); stroke-miterlimit: 10; stroke-width: 0.8px;"></path></g></svg><svg xmlns="http://www.w3.org/2000/svg" viewBox="0 0 63.969 63.969"></svg><svg xmlns="http://www.w3.org/2000/svg" viewBox="0 0 63.969 63.969" id="b2a9da5a-1a09-4125-b598-789ca65079b5" data-name="Hat"><g id="fb3f6d50-ed10-4f0a-a263-1280ff8e5101" data-name="Hat Yellow"><polygon points="21.136 15.532 23.111 12.137 40.957 13.835 40.502 17.309 33.856 17.844 21.136 15.532" style="fill: rgb(255, 243, 144);"></polygon><path d="M33.052,8.651A.772.772,0,0,1,33.017,8a1.1,1.1,0,0,1,1.64.068.849.849,0,0,1-.085,1.023A1.139,1.139,0,0,1,33.052,8.651Z" style="fill: rgb(255, 243, 144); stroke: rgb(0, 0, 0); stroke-linecap: round; stroke-linejoin: round; stroke-width: 0.65px;"></path><path d="M21.672,14.256l-5.507,3.08a.222.222,0,0,0,.073.414,17.051,17.051,0,0,0,4.17.163c2.973-.253,2.916-1.053,4.819-.957,2.642.134,3.4,1.711,7.655,2.6l.021,0a5.355,5.355,0,0,0,2.947-.222l5.52-2.043" style="fill: rgb(255, 243, 144); stroke: rgb(0, 0, 0); stroke-linecap: round; stroke-linejoin: round; stroke-width: 0.65px;"></path><path d="M21.672,14.256l2.1-3.1a2,2,0,0,1,.977-.758A25.62,25.62,0,0,1,33.4,8.89a2.4,2.4,0,0,1,.475.047,15.023,15.023,0,0,1,5.157,2.072,14.839,14.839,0,0,1,2.229,1.75,2.017,2.017,0,0,1,.614,1.25l-.124,4.148A24.6,24.6,0,0,0,29.7,13.641,26.907,26.907,0,0,0,21.672,14.256Z" style="fill: rgb(255, 243, 144); stroke: rgb(0, 0, 0); stroke-linecap: round; stroke-linejoin: round; stroke-width: 0.65px;"></path><path d="M28.5,13.578a4.606,4.606,0,0,1,.926-2.945,4.9,4.9,0,0,1,3.93-1.744" style="fill: none; stroke: rgb(0, 0, 0); stroke-linecap: round; stroke-linejoin: round; stroke-width: 0.65px;"></path><path d="M33.734,8.913A2.812,2.812,0,0,1,35,10.77a7.153,7.153,0,0,1-.421,3.7" style="fill: none; stroke: rgb(0, 0, 0); stroke-linecap: round; stroke-linejoin: round; stroke-width: 0.65px;"></path></g></svg><svg id="fcc61b0a-5e93-4345-b95e-bf656896c35f" data-name="Face" xmlns="http://www.w3.org/2000/svg" viewBox="0 0 63.969 63.969"><g id="e4200d8a-c418-4a87-8b23-316c7f3988c1" data-name="Happy"><circle cx="14.124" cy="26.763" r="0.987"></circle><circle cx="33.669" cy="24.443" r="0.987"></circle><path d="M25.672,26.6a1.464,1.464,0,1,1-2.909.339" style="fill: none; stroke: rgb(0, 0, 0); stroke-linecap: round; stroke-width: 0.7px; stroke-miterlimit: 10;"></path></g></svg><svg id="ad466eff-f284-49d6-bbd9-3a245f4138fe" data-name="Hands" xmlns="http://www.w3.org/2000/svg" viewBox="0 0 63.969 63.969"><g id="bf5b0f26-be89-4435-b257-b95217702e29" data-name="Regular Hands"><path d="M34.866,37.009c-.014.11-.212,1.791.439,2.106.563.272,1.73-.49,2.676-2.106" style="fill: none; stroke: rgb(0, 0, 0); stroke-linecap: round; stroke-miterlimit: 10; stroke-width: 0.65px;"></path><path d="M21.464,38.391s.664,2.872-.8,2.534a1.6,1.6,0,0,1-1.316-1.043" style="fill: none; stroke: rgb(0, 0, 0); stroke-linecap: round; stroke-miterlimit: 10; stroke-width: 0.65px;"></path></g></svg></svg>
